<svg xmlns="http://www.w3.org/2000/svg" width="1280" height="720" viewBox="0 0 1280 720" role="img" aria-label="Novel Generator dashboard preview">
  <rect width="1280" height="720" fill="#f3ecdf"/>
  <rect x="40" y="30" width="1200" height="660" rx="26" fill="#fff9f2" stroke="#d7ccbc"/>
  <rect x="40" y="30" width="1200" height="70" rx="26" fill="#1b5f52"/>
  <text x="84" y="73" fill="#fff9f2" font-family="Georgia, serif" font-size="28">Novel Generator</text>
  <rect x="84" y="140" width="730" height="170" rx="24" fill="#fff" stroke="#d7ccbc"/>
  <text x="116" y="192" fill="#182126" font-family="Georgia, serif" font-size="36">Run local novel jobs without babysitting the browser.</text>
  <text x="116" y="236" fill="#5d676d" font-family="Georgia, serif" font-size="22">Projects keep premise defaults. Runs stream progress and export manuscripts.</text>
  <rect x="850" y="140" width="306" height="170" rx="24" fill="#f6fbf8" stroke="#d7ccbc"/>
  <text x="882" y="190" fill="#182126" font-family="Georgia, serif" font-size="28">Ollama</text>
  <text x="882" y="230" fill="#176a5a" font-family="Georgia, serif" font-size="22">Connected</text>
  <text x="882" y="268" fill="#5d676d" font-family="Georgia, serif" font-size="18">llama3.1:8b</text>
  <rect x="84" y="348" width="520" height="290" rx="24" fill="#fff" stroke="#d7ccbc"/>
  <text x="116" y="395" fill="#182126" font-family="Georgia, serif" font-size="28">Create a project</text>
  <rect x="116" y="425" width="456" height="48" rx="12" fill="#fffaf3" stroke="#d7ccbc"/>
  <rect x="116" y="489" width="456" height="78" rx="12" fill="#fffaf3" stroke="#d7ccbc"/>
  <rect x="116" y="587" width="186" height="36" rx="18" fill="#176a5a"/>
  <text x="154" y="611" fill="#fff9f2" font-family="Georgia, serif" font-size="20">Create project</text>
  <rect x="636" y="348" width="520" height="290" rx="24" fill="#fff" stroke="#d7ccbc"/>
  <text x="668" y="395" fill="#182126" font-family="Georgia, serif" font-size="28">Projects</text>
  <rect x="668" y="425" width="456" height="72" rx="18" fill="#fffaf3" stroke="#d7ccbc"/>
  <rect x="668" y="515" width="456" height="72" rx="18" fill="#fffaf3" stroke="#d7ccbc"/>
  <text x="698" y="468" fill="#182126" font-family="Georgia, serif" font-size="22">The Glass Orchard</text>
  <text x="698" y="558" fill="#182126" font-family="Georgia, serif" font-size="22">Salt Below The Stairs</text>
</svg>
